<?xml version="1.0" encoding="UTF-8"?>
<svg width="256" height="256" viewBox="0 0 256 256" fill="none" xmlns="http://www.w3.org/2000/svg">
  <defs>
    <linearGradient id="g" x1="40" y1="216" x2="216" y2="40" gradientUnits="userSpaceOnUse">
      <stop stop-color="#FF2D2D"/>
      <stop offset="1" stop-color="#FF6B2D"/>
    </linearGradient>
    <filter id="s" x="-20%" y="-20%" width="140%" height="140%" color-interpolation-filters="sRGB">
      <feDropShadow dx="0" dy="10" stdDeviation="12" flood-color="#000000" flood-opacity="0.25"/>
    </filter>
  </defs>

  <!-- Badge -->
  <g filter="url(#s)">
    <path d="M128 22C70.02 22 22 70.02 22 128C22 185.98 70.02 234 128 234C185.98 234 234 185.98 234 128C234 70.02 185.98 22 128 22Z" fill="url(#g)"/>
  </g>

  <!-- S mark (Smokeroll) -->
  <path d="M92 92.5C92 77.86 104.02 66 120.85 66H144.7C161.54 66 175 77.86 175 92.5C175 105.4 165.14 115.8 151.9 118.3L118.8 124.6C111.1 126.1 106 131.3 106 137.6C106 144.5 112.2 150 120.8 150H164" stroke="#0B0B0F" stroke-width="18" stroke-linecap="round" stroke-linejoin="round"/>
  <path d="M164 163.5C164 178.14 151.98 190 135.15 190H111.3C94.46 190 81 178.14 81 163.5C81 150.6 90.86 140.2 104.1 137.7L137.2 131.4C144.9 129.9 150 124.7 150 118.4C150 111.5 143.8 106 135.2 106H92" stroke="#0B0B0F" stroke-width="18" stroke-linecap="round" stroke-linejoin="round"/>

  <!-- Little "smoke" curls -->
  <path d="M178 72C190 62 196 54 196 44" stroke="#F2F3F5" stroke-opacity="0.85" stroke-width="10" stroke-linecap="round"/>
  <path d="M196 92C208 82 214 74 214 64" stroke="#F2F3F5" stroke-opacity="0.7" stroke-width="8" stroke-linecap="round"/>
</svg>
